<?xml version="1.0" encoding="UTF-8"?>
<svg xmlns="http://www.w3.org/2000/svg" xmlns:xlink="http://www.w3.org/1999/xlink" width="16px" height="16px" viewBox="0 0 16 16" version="1.1">
<g id="surface1">
<path style=" stroke:none;fill-rule:nonzero;fill:rgb(29.411766%,68.235296%,30.980393%);fill-opacity:1;" d="M 15.894531 7.992188 C 15.894531 3.625 12.355469 0.0898438 7.992188 0.0898438 C 3.625 0.0898438 0.0898438 3.625 0.0898438 7.992188 C 0.0898438 12.355469 3.625 15.894531 7.992188 15.894531 C 12.355469 15.894531 15.894531 12.355469 15.894531 7.992188 Z M 15.894531 7.992188 "/>
<path style=" stroke:none;fill-rule:nonzero;fill:rgb(100%,100%,100%);fill-opacity:1;" d="M 8.28125 7.640625 L 7.699219 7.640625 C 7.0625 7.640625 6.542969 7.144531 6.542969 6.539062 L 6.542969 5.894531 C 6.542969 5.289062 7.0625 4.796875 7.699219 4.796875 L 8.359375 4.796875 C 8.953125 4.796875 9.4375 5.257812 9.4375 5.824219 C 9.4375 6.015625 9.597656 6.175781 9.789062 6.175781 C 9.984375 6.175781 10.140625 6.015625 10.140625 5.824219 C 10.140625 4.867188 9.339844 4.09375 8.359375 4.09375 L 8.34375 4.09375 L 8.34375 3.25 C 8.34375 3.054688 8.183594 2.898438 7.992188 2.898438 C 7.796875 2.898438 7.640625 3.054688 7.640625 3.25 L 7.640625 4.097656 C 6.640625 4.128906 5.839844 4.921875 5.839844 5.894531 L 5.839844 6.539062 C 5.839844 7.535156 6.675781 8.34375 7.699219 8.34375 L 8.28125 8.34375 C 8.921875 8.34375 9.441406 8.835938 9.441406 9.441406 L 9.441406 10.085938 C 9.441406 10.691406 8.921875 11.1875 8.28125 11.1875 L 7.625 11.1875 C 7.027344 11.1875 6.542969 10.726562 6.542969 10.160156 C 6.542969 9.964844 6.386719 9.808594 6.191406 9.808594 C 5.996094 9.808594 5.839844 9.964844 5.839844 10.160156 C 5.839844 11.113281 6.640625 11.890625 7.625 11.890625 L 7.640625 11.890625 L 7.640625 12.734375 C 7.640625 12.925781 7.796875 13.085938 7.992188 13.085938 C 8.183594 13.085938 8.34375 12.925781 8.34375 12.734375 L 8.34375 11.886719 C 9.339844 11.855469 10.140625 11.058594 10.140625 10.085938 L 10.140625 9.441406 C 10.140625 8.449219 9.308594 7.640625 8.28125 7.640625 Z M 8.28125 7.640625 "/>
</g>
</svg>
